<?xml version="1.0" standalone="no"?><!DOCTYPE svg PUBLIC "-//W3C//DTD SVG 1.1//EN" "http://www.w3.org/Graphics/SVG/1.1/DTD/svg11.dtd"><svg t="1695437278653" class="icon" viewBox="0 0 1117 1024" version="1.1" xmlns="http://www.w3.org/2000/svg" p-id="1179" xmlns:xlink="http://www.w3.org/1999/xlink" width="218.1640625" height="200"><path d="M124.076094 93.05707a93.05707 93.05707 0 0 1 93.05707-93.05707h589.361444a93.05707 93.05707 0 0 1 93.05707 93.05707v62.038047H124.076094V93.05707z m0 62.038047h651.399491v713.437538H124.076094V155.095117z m651.399491 744.456561H0v46.528535A77.547558 77.547558 0 0 0 77.547558 1023.627772h620.380468a77.547558 77.547558 0 0 0 77.547559-77.547559V899.551678z" fill="#C1D0FF" p-id="1180"></path><path d="M696.656246 367.513389c7.599661-76.430874 119.019993-76.430874 126.619654 0 5.056101 50.529989 64.333455 75.066037 103.603538 42.899309 59.432449-48.637829 138.220768 30.119472 89.55192 89.551921-32.166727 39.301103-7.599661 98.578456 42.930329 103.603538 76.430874 7.661699 76.430874 119.051012 0 126.650673-50.529989 5.056101-75.066037 64.333455-42.930329 103.603538 48.668848 59.463468-30.088453 138.220768-89.520901 89.55192-39.301103-32.166727-98.578456-7.599661-103.603538 42.930329-7.661699 76.430874-119.051012 76.430874-126.650673 0-5.056101-50.529989-64.333455-75.066037-103.603538-42.930329-59.432449 48.668848-138.220768-30.088453-89.55192-89.520901 32.166727-39.301103 7.599661-98.578456-42.930329-103.603538-76.430874-7.661699-76.430874-119.051012 0-126.650673 50.529989-5.056101 75.066037-64.333455 42.930329-103.603538-48.668848-59.463468 30.088453-138.220768 89.520901-89.551921 39.301103 32.166727 98.578456 7.599661 103.603538-42.930328z m225.446262 299.395614a162.136435 162.136435 0 1 0-324.27287 0 162.136435 162.136435 0 0 0 324.27287 0zM759.966073 738.252757a71.343754 71.343754 0 1 0 0-142.687508 71.343754 71.343754 0 0 0 0 142.687508zM114.801406 239.559918c2.977826-29.902339 46.590573-29.902339 49.568399 0a24.908276 24.908276 0 0 0 40.541863 16.81231c23.264268-19.04568 54.066158 11.787229 35.051497 35.051497a24.908276 24.908276 0 0 0 16.781292 40.510844c29.902339 2.977826 29.902339 46.590573 0 49.5684a24.908276 24.908276 0 0 0-16.812311 40.541863c19.04568 23.264268-11.787229 54.066158-35.051497 35.051497a24.908276 24.908276 0 0 0-40.510844 16.781291c-2.977826 29.902339-46.590573 29.902339-49.568399 0a24.908276 24.908276 0 0 0-40.541864-16.781291c-23.264268 19.014661-54.066158-11.787229-35.051496-35.051497a24.908276 24.908276 0 0 0-16.781292-40.541863c-29.902339-2.977826-29.902339-46.590573 0-49.5684a24.908276 24.908276 0 0 0 16.812311-40.541863c-19.04568-23.264268 11.787229-54.066158 35.051496-35.051497a24.908276 24.908276 0 0 0 40.510845-16.750272zM203.019508 356.718769a63.433903 63.433903 0 1 0-126.867806 0 63.433903 63.433903 0 0 0 126.867806 0z m-63.433903 27.917121a27.917121 27.917121 0 1 0 0-55.834242 27.917121 27.917121 0 0 0 0 55.834242z" fill="#0F62FE" p-id="1181"></path><path d="M124.076094 93.05707a93.05707 93.05707 0 0 1 93.05707-93.05707h589.361444a93.05707 93.05707 0 0 1 93.05707 93.05707v62.038047H124.076094V93.05707z m0 62.038047h651.399491v713.437538H124.076094V155.095117z m651.399491 744.456561H0v46.528535A77.547558 77.547558 0 0 0 77.547558 1023.627772h620.380468a77.547558 77.547558 0 0 0 77.547559-77.547559V899.551678z" fill="#E8E8E8" fill-opacity=".1" p-id="1182"></path><path d="M775.475585 155.095117h124.076093V93.05707a93.05707 93.05707 0 0 0-93.05707-93.05707H217.133164a93.05707 93.05707 0 0 0-93.05707 93.05707v775.475585h651.399491V155.095117z m-31.019024 682.418514H155.095117V186.11414h589.361444v651.399491zM155.095117 124.076094V93.05707a62.038047 62.038047 0 0 1 62.038047-62.038047h589.361444a62.038047 62.038047 0 0 1 62.038047 62.038047v31.019024H155.095117z m589.361444 806.494608H31.019023v15.509511A46.528535 46.528535 0 0 0 77.547558 992.608748h620.380468a46.528535 46.528535 0 0 0 46.528535-46.528535V930.570702z m31.019024-31.019024v46.528535a77.547558 77.547558 0 0 1-77.547559 77.547559h-620.380468A77.547558 77.547558 0 0 1 0 946.080213V899.551678h775.475585z" fill="#FFFFFF" fill-opacity=".6" p-id="1183"></path><path d="M248.152187 310.190234m31.019023 0l341.209258 0q31.019023 0 31.019023 31.019023l0 0q0 31.019023-31.019023 31.019024l-341.209258 0q-31.019023 0-31.019023-31.019024l0 0q0-31.019023 31.019023-31.019023Z" fill="#FFFFFF" p-id="1184"></path><path d="M248.152187 465.285351m31.019023 0l341.209258 0q31.019023 0 31.019023 31.019023l0 0q0 31.019023-31.019023 31.019024l-341.209258 0q-31.019023 0-31.019023-31.019024l0 0q0-31.019023 31.019023-31.019023Z" fill="#FFFFFF" p-id="1185"></path><path d="M248.152187 620.380468m31.019023 0l341.209258 0q31.019023 0 31.019023 31.019023l0 0q0 31.019023-31.019023 31.019023l-341.209258 0q-31.019023 0-31.019023-31.019023l0 0q0-31.019023 31.019023-31.019023Z" fill="#FFFFFF" p-id="1186"></path></svg>