<?xml version="1.0" standalone="no"?><!DOCTYPE svg PUBLIC "-//W3C//DTD SVG 1.1//EN" "http://www.w3.org/Graphics/SVG/1.1/DTD/svg11.dtd">
<svg t="1695438974385" class="icon" viewBox="0 0 1024 1024" version="1.1"
    xmlns="http://www.w3.org/2000/svg" p-id="4330"
    xmlns:xlink="http://www.w3.org/1999/xlink" width="200" height="200">
    <path d="M536.544 122.624l22.656 22.592a32 32 0 0 1 0.064 45.28L206.592 543.936a159.68 159.68 0 0 0 0 225.44 158.592 158.592 0 0 0 218.88 5.44l5.76-5.44 406.4-407.296a90.464 90.464 0 0 0 0-127.68 89.728 89.728 0 0 0-122.624-4.224l-4.48 4.224-406.4 407.264a21.216 21.216 0 0 0 0 29.952c7.36 7.36 18.784 8.128 26.976 2.24l2.56-2.24L686.4 318.176a32 32 0 0 1 45.248-0.064l22.656 22.624a32 32 0 0 1 0.064 45.248L401.664 739.424a116.864 116.864 0 0 1-165.504 0 117.248 117.248 0 0 1-4.576-160.736l4.576-4.8 406.4-407.296a185.728 185.728 0 0 1 263.04 0 186.464 186.464 0 0 1 5.696 257.28l-5.728 6.016-406.4 407.296a254.592 254.592 0 0 1-360.544 0 255.68 255.68 0 0 1-6.208-354.624l6.208-6.432L491.296 122.688a32 32 0 0 1 45.248-0.064z" fill="#333333" p-id="4331"></path>
</svg>